<svg width="456" height="456" viewBox="0 0 456 456" fill="none" xmlns="http://www.w3.org/2000/svg">
<circle cx="228" cy="228" r="200" fill="white" stroke="#FFA2A2" stroke-width="56"/>
<path d="M237.125 139.088C237.125 130.023 225.472 126.607 220.339 134.121C173.25 203.068 240.167 206.172 240.167 239.688C240.167 253.258 229.099 264.238 215.51 264.059C202.138 263.887 191.5 252.721 191.5 239.326V206.759C191.5 198.494 181.436 194.483 175.748 200.474C165.57 211.184 155 229.53 155 251.875C155 292.197 187.747 325 228 325C268.253 325 301 292.197 301 251.875C301 187.019 237.125 178.369 237.125 139.088V139.088Z" fill="#FFA2A2"/>
</svg>
